<svg xmlns="http://www.w3.org/2000/svg" width="320" height="320" fill="none"><path fill="#fff" fill-rule="evenodd" d="M320 159.6c0 3.8-.1 7.5-.4 11.1V320H.4V170.7a161.6 161.6 0 0 1 0-22.2V.4h148.5a162.7 162.7 0 0 1 22.2 0h148.5V148.5c.3 3.7.4 7.4.4 11.1Zm-1.9-78.1v53.6c-3-19.2-9.4-37.3-18.5-53.6H318Zm0 67a157 157 0 0 0-20.3-67h-57.3v77.8H318v-10.7Zm0-68.9h-19.6c-14-24-34-44-58-58V2H318v77.7Zm-21.4 0a159.1 159.1 0 0 0-56.2-56.2v56.2h56.2ZM238.6 2v18.7a159.2 159.2 0 0 0-54-18.7h54Zm0 20.4A157.8 157.8 0 0 0 171 1.9h-10.2v77.7h77.7V22.3ZM81.4 1.9h54c-19.4 3-37.6 9.4-54 18.7V1.9Zm67.5 0a157.8 157.8 0 0 0-67.5 20.4v57.3h77.7V2h-10.2Zm-69.4 0v19.7c-24 14-44 34-58 58H2V2h77.6Zm0 21.5a159.1 159.1 0 0 0-56.2 56.2h56.2V23.4ZM2 81.5h18.5A158.3 158.3 0 0 0 2 135.1V81.5Zm0 79.6v9.6a157 157 0 0 0 21 68.2h56.6V161H2Zm0 77.8v-54.7c3 19.6 9.6 38 19.2 54.7H1.9Zm0 1.9h20.3c13.9 23.4 33.7 43 57.3 56.8v20.9H2v-77.7Zm79.5 77.7v-19.8c19 10.7 40.2 17.6 63 19.8h-63Zm0-21.5a158 158 0 0 0 77.7 20.8v-77H81.4V297Zm157.2 21.5h-63c22.8-2.2 44-9.1 63-19.8v19.8Zm-77.7-.7a158 158 0 0 0 77.7-20.8v-56.2h-77.7v77Zm79.6.7v-20.9a160.6 160.6 0 0 0 57.3-56.8h20.3v77.7h-77.6Zm0-22.6c22.8-13.5 42-32.5 55.6-55.1h-55.6v55Zm0-57h56.7a157 157 0 0 0 21-68.2V161h-77.7V239Zm77.6-54.7c-3 19.6-9.7 38-19.2 54.7h19.2v-54.7ZM24 240.8a159.1 159.1 0 0 0 55.6 55v-55H24ZM22.2 81.5a157 157 0 0 0-20.3 67.1v10.7h77.6V81.5H22.2Zm59.2 0h77.7v5.1H99v72.7H81.4V81.5Zm17.7 79.6H81.4V239h77.7V161h-34v72H99v-72Zm26-1.8h34v-46.7h-34v46.7Zm35.8-72.7H224.3v72.7h14.3V81.5h-77.7v5.1Zm63.4 74.5h14.3V239h-77.7V161h37.5v72h25.9v-72Zm-26-1.8v-46.7H161v46.7h37.5Z" clip-rule="evenodd"/></svg>